<svg xmlns="http://www.w3.org/2000/svg" viewBox="0 0 1600 620" role="img" aria-labelledby="title desc">
  <title id="title">تشكيلة إكسسوارات موبايل</title><desc id="desc">سماعات وشاحن وهاتف بتنسيق عصري على خلفية كحلية وذهبية</desc>
  <defs><linearGradient id="bg" x1="0" y1="0" x2="1" y2="1"><stop stop-color="#163b5b"/><stop offset="1" stop-color="#061525"/></linearGradient><radialGradient id="glow"><stop stop-color="#d9b96e" stop-opacity=".58"/><stop offset="1" stop-color="#d9b96e" stop-opacity="0"/></radialGradient><filter id="shadow"><feDropShadow dy="20" stdDeviation="22" flood-color="#000" flood-opacity=".42"/></filter></defs>
  <rect width="1600" height="620" fill="url(#bg)"/><circle cx="360" cy="310" r="390" fill="url(#glow)"/><circle cx="1390" cy="80" r="250" fill="#fff" opacity=".035"/>
  <g filter="url(#shadow)"><rect x="140" y="100" width="220" height="410" rx="38" fill="#0b2034" stroke="#e2c57e" stroke-width="4" transform="rotate(-9 140 100)"/><rect x="365" y="190" width="210" height="260" rx="34" fill="#f5f1e8"/><circle cx="470" cy="320" r="64" fill="#0d2942"/><path d="M435 320a35 35 0 0 1 70 0v44" fill="none" stroke="#d9b96e" stroke-width="13"/><rect x="590" y="155" width="175" height="240" rx="34" fill="#d9b96e"/><rect x="646" y="205" width="64" height="105" rx="28" fill="#0b2034"/><path d="M680 225l-20 38h20l-7 30 33-47h-20l12-21z" fill="#f6e7bd"/></g>
  <path d="M735 390c130 70 190-45 300 15" fill="none" stroke="#e2c57e" stroke-width="14" stroke-linecap="round" opacity=".85"/><g fill="#fff" opacity=".06"><path d="M1020 60h360l-180 330z"/><circle cx="1380" cy="520" r="180"/></g>
</svg>
