<svg xmlns="http://www.w3.org/2000/svg" viewBox="0 0 1600 700" role="img" aria-labelledby="title desc">
  <title id="title">إكسسوارات هاتف عصرية</title><desc id="desc">تكوين تجريدي فاخر بهاتف وسماعات على خلفية كحلية</desc>
  <defs><linearGradient id="bg" x1="0" x2="1"><stop stop-color="#102b46"/><stop offset="1" stop-color="#061525"/></linearGradient><radialGradient id="glow"><stop stop-color="#d9b96e" stop-opacity=".55"/><stop offset="1" stop-color="#d9b96e" stop-opacity="0"/></radialGradient><filter id="shadow"><feDropShadow dx="0" dy="24" stdDeviation="28" flood-color="#000" flood-opacity=".4"/></filter></defs>
  <rect width="1600" height="700" fill="url(#bg)"/><circle cx="370" cy="265" r="320" fill="url(#glow)"/><circle cx="1430" cy="80" r="250" fill="#fff" opacity=".035"/>
  <g filter="url(#shadow)" transform="translate(160 70) rotate(-7 240 290)"><rect x="85" y="20" width="330" height="610" rx="54" fill="#091725" stroke="#d9b96e" stroke-width="5"/><rect x="105" y="62" width="290" height="520" rx="36" fill="#173b5b"/><circle cx="250" cy="330" r="120" fill="url(#glow)"/><rect x="202" y="40" width="96" height="12" rx="6" fill="#d9b96e" opacity=".75"/></g>
  <g fill="none" stroke="#ead59e" stroke-width="18" stroke-linecap="round" opacity=".92"><path d="M590 240c100-110 255-110 355 0"/><path d="M614 252v130c0 35 28 63 63 63h18V282h-18c-35 0-63 28-63 63m307-93v130c0 35-28 63-63 63h-18V282h18c35 0 63 28 63 63"/></g>
  <g opacity=".22" fill="#d9b96e"><circle cx="1120" cy="140" r="9"/><circle cx="1200" cy="220" r="5"/><circle cx="1050" cy="500" r="7"/></g>
</svg>
